<svg xmlns="http://www.w3.org/2000/svg" viewBox="0 0 512 512">
  <defs>
    <linearGradient id="bgGradient" x1="0%" y1="0%" x2="100%" y2="100%">
      <stop offset="0%" stop-color="#10b981" />
      <stop offset="100%" stop-color="#047857" />
    </linearGradient>
  </defs>
  <rect width="512" height="512" rx="115" fill="url(#bgGradient)" />
  <path d="M384 256C384 185.3 326.7 128 256 128C185.3 128 128 185.3 128 256C128 326.7 185.3 384 256 384C276.5 384 295.9 379.2 312.9 370.8L384 384L370.8 312.9C379.2 295.9 384 276.5 384 256ZM211.2 272c-11.8 0-21.3-9.6-21.3-21.3c0-11.8 9.6-21.3 21.3-21.3c11.8 0 21.3 9.6 21.3 21.3C232.5 262.4 223 272 211.2 272zM275.2 272c-11.8 0-21.3-9.6-21.3-21.3c0-11.8 9.6-21.3 21.3-21.3c11.8 0 21.3 9.6 21.3 21.3C296.5 262.4 287 272 275.2 272zM339.2 272c-11.8 0-21.3-9.6-21.3-21.3c0-11.8 9.6-21.3 21.3-21.3c11.8 0 21.3 9.6 21.3 21.3C360.5 262.4 351 272 339.2 272z" fill="white" />
</svg>
